<?xml version="1.0" standalone="no"?>
<!DOCTYPE svg PUBLIC "-//W3C//DTD SVG 20010904//EN"
 "http://www.w3.org/TR/2001/REC-SVG-20010904/DTD/svg10.dtd">
<svg version="1.0" xmlns="http://www.w3.org/2000/svg"
 width="700.000000pt" height="700.000000pt" viewBox="0 0 700.000000 700.000000"
 preserveAspectRatio="xMidYMid meet">
<metadata>
Created by potrace 1.14, written by Peter Selinger 2001-2017
</metadata>
<g transform="translate(0.000000,700.000000) scale(0.100000,-0.100000)"
fill="#000000" stroke="none">
<path d="M5255 6913 c-33 -7 -73 -15 -90 -18 -44 -9 -293 -94 -339 -116 -22
-10 -45 -19 -51 -19 -7 0 -25 -6 -41 -14 -56 -28 -461 -194 -584 -239 -69 -25
-172 -59 -230 -76 -97 -27 -123 -33 -188 -46 -13 -2 -31 -6 -40 -9 -9 -3 -39
-8 -67 -11 -27 -3 -60 -7 -72 -9 -12 -3 -53 -7 -90 -11 -37 -3 -86 -8 -108
-10 -22 -2 -114 -7 -205 -10 -91 -3 -239 -7 -330 -10 -91 -3 -181 -7 -200 -10
-19 -2 -62 -7 -95 -10 -76 -7 -136 -15 -155 -20 -8 -2 -28 -7 -45 -9 -16 -3
-55 -13 -85 -21 -30 -8 -62 -17 -71 -19 -122 -31 -381 -155 -534 -258 -320
-214 -684 -581 -994 -1003 -86 -116 -157 -218 -186 -267 -5 -10 -34 -57 -64
-105 -66 -109 -181 -343 -216 -443 -58 -164 -87 -314 -90 -464 -7 -360 179
-657 690 -1101 44 -38 87 -76 96 -85 9 -8 29 -26 45 -39 154 -128 257 -223
409 -375 161 -161 261 -283 351 -428 53 -86 169 -314 208 -408 10 -25 24 -58
31 -75 7 -16 56 -138 108 -270 156 -396 218 -511 342 -631 73 -71 149 -117
240 -144 135 -39 409 -46 586 -15 9 2 40 6 69 10 29 4 62 9 74 11 29 5 136 25
166 30 83 15 138 25 160 30 67 14 315 62 364 70 40 6 49 8 131 23 28 6 68 13
89 16 21 3 48 7 60 10 12 2 39 7 61 10 22 3 141 21 265 40 124 19 245 37 270
40 25 3 108 14 185 25 77 11 156 23 175 25 19 3 51 7 70 10 19 2 91 13 160 24
69 11 143 22 165 26 22 3 47 7 55 10 8 2 31 6 50 9 59 9 242 46 305 63 33 8
67 16 75 18 65 13 265 87 358 132 240 116 372 268 409 468 11 63 8 263 -6 340
-31 165 -98 385 -189 620 -48 124 -132 328 -152 370 -25 54 -173 413 -210 509
-70 184 -161 474 -184 586 -66 317 -77 380 -91 510 -3 30 -8 69 -10 85 -22
169 -41 496 -50 865 -9 365 -24 676 -40 820 -2 25 -7 66 -9 92 -48 445 -160
743 -321 855 -80 55 -254 76 -390 46z m-1405 -1253 c130 -40 232 -123 311
-257 58 -99 62 -108 146 -332 35 -96 143 -379 240 -630 96 -251 185 -483 198
-516 12 -33 75 -197 140 -365 65 -168 128 -332 140 -365 26 -69 282 -738 355
-925 149 -383 153 -535 16 -686 -95 -106 -214 -149 -343 -125 -122 22 -194 82
-261 218 -48 96 -140 329 -227 571 -36 101 -72 199 -79 217 l-14 33 -787 -1
-787 -2 -99 -280 c-55 -154 -102 -287 -106 -295 -3 -8 -7 -19 -9 -25 -6 -24
-75 -189 -100 -237 -66 -131 -118 -176 -227 -198 -168 -34 -339 54 -418 216
-43 87 -47 168 -15 309 9 39 74 218 235 650 104 277 421 1126 531 1420 467
1253 487 1304 553 1400 65 96 204 194 307 214 71 15 238 10 300 -9z"/>
<path d="M3676 4792 c-6 -10 -85 -238 -151 -437 -19 -55 -65 -192 -104 -305
-221 -649 -311 -916 -311 -922 0 -5 259 -8 575 -8 350 0 575 4 575 9 0 5 -5
22 -11 38 -15 39 -134 379 -169 483 -15 47 -45 132 -65 190 -57 162 -189 543
-265 763 -37 110 -70 194 -74 189z"/>
</g>
</svg>
