<?xml version="1.0" encoding="utf-8"?>
<svg viewBox="0 0 500 500" xmlns="http://www.w3.org/2000/svg">
  <defs>
    <linearGradient id="sw-gradient" x1="0" x2="1" y1="1" y2="0">
      <stop id="stop1" stop-color="rgba(255, 0, 0, 1)" offset="0"/>
      <stop id="stop2" stop-color="rgba(255, 255, 0, 1)" offset="1"/>
    </linearGradient>
  </defs>
  <path fill="url(#sw-gradient)" d="M 403.171 9.375 C 428.617 26.668 428.617 96.591 429.92 148.474 C 431.879 200.35 435.797 234.935 453.412 281.554 C 471.03 327.42 503 386.065 491.906 419.148 C 480.815 452.229 426.661 459.749 382.945 466.516 C 339.232 472.531 305.953 477.038 268.764 484.561 C 232.223 491.326 191.771 501.854 169.585 481.557 C 146.748 460.5 142.181 410.124 111.515 369.524 C 80.85 329.674 24.085 299.596 9.729 259.751 C -4.626 220.65 24.085 171.781 55.404 132.682 C 86.719 93.585 120.648 64.264 157.84 54.487 C 194.38 43.961 233.528 53.735 279.198 40.955 C 324.874 28.171 377.072 -7.167 403.171 9.375 Z M 339.248 373.874 C 341.706 379.79 344.006 384.173 346.146 387.023 C 348.286 389.884 350.934 392.146 354.088 393.81 C 357.232 395.47 361.012 396.302 365.426 396.302 C 372.984 396.302 379.442 393.478 384.797 387.833 C 390.154 382.187 392.832 375.974 392.832 369.193 C 392.832 362.683 389.995 352.254 384.322 337.907 L 311.933 149.41 C 308.522 139.974 305.717 132.439 303.515 126.803 C 301.312 121.156 298.605 115.871 295.388 110.948 C 292.172 106.036 287.953 102.021 282.73 98.9 C 277.496 95.781 270.973 94.22 263.158 94.22 C 255.477 94.22 249.02 95.781 243.786 98.9 C 238.552 102.021 234.328 106.107 231.111 111.159 C 227.906 116.201 224.885 122.544 222.047 130.188 C 219.211 137.82 216.783 144.362 214.766 149.815 L 143.883 339.51 C 140.985 347.077 138.907 352.989 137.647 357.241 C 136.388 361.496 135.757 365.614 135.757 369.598 C 135.757 376.507 138.466 382.684 143.883 388.125 C 149.302 393.576 155.538 396.302 162.595 396.302 C 170.911 396.302 176.897 393.743 180.553 388.627 C 184.21 383.509 188.619 373.646 193.781 359.04 L 207.023 321.566 L 319.676 321.566 L 332.918 358.231 C 334.68 362.754 336.79 367.968 339.248 373.874 Z M 262.789 156.584 L 304.56 277.13 L 221.756 277.13 Z" width="100%" height="100%" stroke-width="0" style="transition: all 0.3s ease 0s;" stroke="url(#sw-gradient)"/>
</svg>
